<svg width="421" height="421" viewBox="0 0 421 421" fill="none" xmlns="http://www.w3.org/2000/svg">
<rect width="421" height="421" fill="none"/>
<circle cx="210.129" cy="210.5" r="210" fill="white"/>
<path d="M317.367 191.73V187.479C317.367 181.738 312.68 178.868 303.306 178.868C299.019 178.868 295.676 179.594 293.278 181.048C290.88 182.428 289.681 184.427 289.681 187.043V189.441C289.681 191.911 289.863 193.837 290.226 195.218C290.59 196.526 291.353 197.543 292.515 198.27C293.678 198.924 295.422 199.541 297.747 200.123L307.23 202.521C312.462 203.829 316.459 205.173 319.22 206.554C321.982 207.862 323.835 209.569 324.779 211.677C325.797 213.711 326.305 216.473 326.305 219.961V223.885C326.305 229.044 324.271 233.004 320.201 235.766C316.132 238.527 310.282 239.908 302.652 239.908C287.029 239.908 279.217 234.131 279.217 222.577V219.089C279.217 218.217 279.544 217.599 280.198 217.236C280.852 216.872 281.979 216.691 283.577 216.691C284.813 216.691 285.83 216.945 286.629 217.454C287.429 217.962 287.828 218.616 287.828 219.416V224.321C287.828 227.082 289.027 229.117 291.425 230.425C293.823 231.66 297.602 232.278 302.761 232.278C312.717 232.278 317.694 229.734 317.694 224.648V218.871C317.694 216.691 316.859 214.983 315.187 213.748C313.589 212.44 310.646 211.241 306.358 210.151L296.766 207.753C292.406 206.663 289.1 205.464 286.847 204.156C284.595 202.848 283.069 201.067 282.269 198.815C281.47 196.489 281.07 193.256 281.07 189.114V187.806C281.07 182.428 282.96 178.323 286.738 175.489C290.59 172.655 296.04 171.238 303.088 171.238C318.348 171.238 325.978 176.906 325.978 188.242V192.057C325.978 193.583 324.707 194.346 322.163 194.346C318.966 194.346 317.367 193.474 317.367 191.73Z" fill="#333333"/>
<path d="M250.133 171.456L250.114 230.265L265.873 230.262L265.872 239.884L241.415 239.876L241.432 171.456C241.432 171.456 242.882 171.456 245.783 171.456C248.683 171.456 250.133 171.456 250.133 171.456ZM250.1 163.728C250.1 163.728 248.891 163.728 245.773 163.728C242.583 163.728 241.415 163.724 241.415 163.724V156.261V148.799C241.415 148.799 242.547 148.801 245.664 148.801C248.855 148.801 250.1 148.799 250.1 148.799L250.1 163.728Z" fill="#333333"/>
<path d="M212.284 188.917L212.276 239.895C212.276 239.895 210.831 239.897 207.924 239.897C205.017 239.897 203.564 239.898 203.564 239.898V187.814C203.564 185.019 202.292 182.885 199.749 181.414C197.206 179.943 193.5 179.207 188.631 179.207C183.908 179.207 180.238 179.906 177.622 181.304C175.079 182.701 173.807 184.724 173.807 187.373L173.806 239.898L169.447 239.897L165.087 239.9L165.087 148.837C165.087 148.837 166.54 148.836 169.447 148.836C172.354 148.836 173.807 148.834 173.807 148.834V176.007C175.696 174.536 177.876 173.432 180.347 172.697C182.89 171.888 185.652 171.483 188.631 171.483C196.261 171.483 202.111 172.991 206.18 176.007C210.249 178.95 212.284 183.253 212.284 188.917Z" fill="#333333"/>
<path d="M112.298 230.359C114.631 230.356 124.814 230.327 124.814 230.327C125.922 230.327 126.861 229.66 127.283 229.121C128.235 227.975 128.228 226.562 128.228 226.562L128.265 187.558C128.265 184.739 127.131 182.588 124.863 181.104C122.595 179.62 119.291 178.879 114.949 178.879C106.137 178.879 101.731 181.772 101.731 187.558L101.731 269.642C101.731 271.348 100.435 272.201 97.8437 272.201C95.2519 272.201 93.956 271.348 93.956 269.642L93.956 188.671C93.956 182.959 95.7378 178.619 99.3015 175.652C102.93 172.61 108.146 171.09 114.949 171.09C121.753 171.09 126.969 172.61 130.597 175.652C134.226 178.619 135.908 182.959 135.908 188.671L135.903 239.899L112.294 239.902C112.294 239.902 112.299 237.675 112.299 235.079C112.299 232.483 112.298 230.359 112.298 230.359Z" fill="#333333"/>
<path d="M165.078 235.956V235.963C165.08 238 166.497 239.881 168.546 239.9L165.078 239.9V235.963C165.078 235.961 165.078 235.958 165.078 235.956Z" fill="white"/>
<path d="M173.807 235.953V235.961C173.806 237.998 172.388 239.879 170.34 239.898L173.807 239.898V235.961C173.807 235.958 173.807 235.956 173.807 235.953Z" fill="white"/>
<path d="M173.807 152.78V152.773C173.806 150.736 172.388 148.855 170.34 148.836L173.807 148.836V152.773C173.807 152.776 173.807 152.778 173.807 152.78Z" fill="white"/>
<path d="M165.078 152.762V152.755C165.08 150.718 166.497 148.837 168.546 148.818L165.078 148.818V152.755C165.078 152.758 165.078 152.76 165.078 152.762Z" fill="white"/>
<path d="M241.415 152.743V152.736C241.416 150.699 242.955 148.818 245.18 148.799L241.415 148.799V152.736C241.415 152.738 241.415 152.741 241.415 152.743Z" fill="white"/>
<path d="M250.115 152.743V152.736C250.113 150.699 248.574 148.818 246.349 148.799L250.115 148.799V152.736C250.115 152.738 250.115 152.741 250.115 152.743Z" fill="white"/>
<path d="M241.419 175.395V175.388C241.421 173.351 242.96 171.47 245.185 171.451L241.419 171.451V175.388C241.419 175.391 241.419 175.393 241.419 175.395Z" fill="white"/>
<path d="M250.138 175.395V175.388C250.136 173.351 248.597 171.47 246.372 171.451L250.138 171.451V175.388C250.138 175.391 250.138 175.393 250.138 175.395Z" fill="white"/>
<path d="M241.415 159.858V159.865C241.416 161.902 242.955 163.783 245.18 163.802L241.415 163.802V159.865C241.415 159.863 241.415 159.86 241.415 159.858Z" fill="white"/>
<path d="M250.115 159.855V159.862C250.113 161.899 248.574 163.78 246.349 163.799L250.115 163.799V159.862C250.115 159.86 250.115 159.857 250.115 159.855Z" fill="white"/>
<path d="M245.365 239.88L245.358 239.88C243.318 239.878 241.434 238.339 241.415 236.114L241.415 239.88L245.358 239.88C245.361 239.88 245.363 239.88 245.365 239.88Z" fill="white"/>
<path d="M261.928 239.88L261.935 239.88C263.972 239.878 265.854 238.339 265.873 236.114L265.873 239.88L261.935 239.88C261.933 239.88 261.931 239.88 261.928 239.88Z" fill="white"/>
<path d="M265.873 234.22L265.873 234.213C265.871 232.176 264.332 230.294 262.107 230.276L265.873 230.275L265.873 234.213C265.873 234.215 265.873 234.217 265.873 234.22Z" fill="white"/>
<path d="M250.115 226.331V226.338C250.116 228.375 251.655 230.256 253.88 230.275L250.115 230.275V226.338C250.115 226.336 250.115 226.333 250.115 226.331Z" fill="#333333"/>
<path d="M203.55 235.956V235.963C203.552 238 204.969 239.881 207.018 239.9L203.55 239.9V235.963C203.55 235.961 203.55 235.958 203.55 235.956Z" fill="white"/>
<path d="M212.279 235.956V235.963C212.277 238 210.86 239.881 208.812 239.9L212.279 239.9V235.963C212.279 235.961 212.279 235.958 212.279 235.956Z" fill="white"/>
<path d="M93.9526 268.252V268.259C93.9543 270.296 95.3716 272.178 97.4202 272.196L93.9526 272.197V268.259C93.9526 268.257 93.9526 268.255 93.9526 268.252Z" fill="white"/>
<path d="M101.715 268.252V268.259C101.714 270.296 100.296 272.178 98.2477 272.196L101.715 272.197V268.259C101.715 268.257 101.715 268.255 101.715 268.252Z" fill="white"/>
<path d="M116.238 230.344L116.231 230.344C114.194 230.346 112.313 231.763 112.294 233.812L112.294 230.344L116.231 230.344C116.233 230.344 116.236 230.344 116.238 230.344Z" fill="white"/>
<path d="M116.238 239.898L116.231 239.898C114.194 239.896 112.313 238.479 112.294 236.43L112.294 239.898L116.231 239.898C116.233 239.898 116.236 239.898 116.238 239.898Z" fill="white"/>
<path d="M135.91 235.956V235.963C135.908 238 134.491 239.881 132.442 239.9L135.91 239.9V235.963C135.91 235.961 135.91 235.958 135.91 235.956Z" fill="white"/>
</svg>
